<svg width="151" height="151" viewBox="0 0 151 151" fill="none" xmlns="http://www.w3.org/2000/svg">
<style>
  @keyframes float { 0%, 100% { transform: translateY(0px) rotate(0deg); } 50% { transform: translateY(-3px) rotate(1deg); } }
  @keyframes floatRev { 0%, 100% { transform: translateY(0px) rotate(0deg); } 50% { transform: translateY(3px) rotate(-1deg); } }
  @keyframes pulse { 0%, 100% { transform: scale(1); } 50% { transform: scale(0.98); } }
  path { transform-origin: center; transform-box: fill-box; }
  path.anim-0 { animation: float 6s ease-in-out infinite; }
  path.anim-1 { animation: floatRev 7s ease-in-out infinite; }
  path.anim-2 { animation: pulse 5s ease-in-out infinite; }
</style>
  <path class="anim-1" fill="#FF6B6B" d="M96.415 33.2481C96.415 33.3686 96.2794 33.3536 95.6617 33.2481C94.3984 33.0893 93.1752 32.6986 92.0537 32.0957C91.5264 31.8094 91.3833 31.7492 91.436 31.6211C91.4888 31.4931 91.6018 31.5383 92.4153 31.7642C92.4906 31.7642 94.8256 32.5175 95.496 32.751C96.3622 33.1427 96.415 33.1427 96.415 33.2481ZM91.8202 24.277C90.8335 28.4123 90.1103 31.9224 89.9898 32.6229C89.9098 32.9277 89.8944 33.2459 89.9446 33.5569C90.3438 34.4081 95.5035 36.0878 96.1589 35.7564C96.8142 35.425 98.5165 31.591 100.498 27.6365C101.711 27.6752 102.925 27.5869 104.121 27.3728C105.379 27.142 106.604 26.7548 107.766 26.2204C110.312 25.0453 113.099 20.0137 113.476 17.4828C113.758 14.735 113.176 11.9676 111.811 9.56623C105.492 -1.39342 86.9543 4.50445 88.4607 16.6768C88.8909 19.4621 90.0499 22.0841 91.8202 24.277ZM81.6077 23.4948C82.0003 24.3517 82.1389 25.3033 82.0069 26.2366C81.9456 26.4742 81.8196 26.69 81.6428 26.8602C81.4661 27.0303 81.2457 27.1481 81.006 27.2004C80.7663 27.2528 80.5168 27.2375 80.2852 27.1565C80.0537 27.0754 79.8492 26.9317 79.6945 26.7413C79.3351 25.9842 79.0646 25.188 78.8885 24.3686C79.0919 24.1049 81.2612 23.5777 81.6077 23.4948ZM96.2794 20.9929C97.0837 21.0346 97.8853 20.8686 98.6069 20.5108C99.2776 20.8357 100.003 21.0325 100.746 21.0908C99.4807 23.4485 96.9121 28.2541 96.0835 30.8152L92.8898 29.9339C93.643 28.0809 95.3077 23.7422 96.2643 20.9929H96.2794ZM96.0157 20.3677C95.4535 20.2827 94.9346 20.0157 94.5387 19.6075C94.1427 19.1994 93.8916 18.6726 93.8238 18.108C93.6129 16.6015 94.5771 14.9142 96.0308 15.3135C96.9422 15.562 97.0552 16.2851 96.897 17.1966C96.7615 17.8594 96.2718 19.5241 96.0007 20.3376L96.0157 20.3677ZM98.0646 18.5599C98.145 18.067 98.3299 17.5971 98.6069 17.1815C98.7387 16.955 98.9314 16.7699 99.163 16.6474C99.3947 16.5249 99.6561 16.4699 99.9175 16.4885C100.475 16.6542 100.716 17.7088 100.256 18.3716C99.8149 18.9576 99.2652 19.4537 98.637 19.8329C98.4209 19.706 98.2487 19.5161 98.1437 19.2885C98.0387 19.061 98.0058 18.8067 98.0495 18.5599H98.0646ZM91.1423 8.98623C94.5168 4.92627 100.867 3.31433 105.454 4.98653C107.946 5.84194 110.042 7.57396 111.352 9.85999C112.65 12.145 113.206 14.7775 112.941 17.3924C112.595 19.735 109.928 24.6009 107.586 25.678C105.444 26.655 103.107 27.1291 100.754 27.064C100.498 27.064 100.226 27.064 100.128 27.2448C99.684 28.1487 98.8705 29.8962 98.0721 31.5383C97.5207 31.272 96.949 31.0504 96.3622 30.8754C97.236 28.3747 99.9929 23.4635 101.303 21.0833C102.439 21.1806 103.581 20.9834 104.618 20.5108C104.898 20.3633 105.13 20.1389 105.287 19.864C105.445 19.5891 105.52 19.2751 105.505 18.9588C105.49 18.6425 105.385 18.337 105.203 18.0782C105.02 17.8195 104.768 17.6181 104.475 17.4979C103.307 16.9254 102.26 18.2963 101.65 19.4487C101.484 19.75 101.296 20.1041 101.085 20.5033C100.476 20.4632 99.875 20.339 99.2999 20.1342C99.8727 19.7316 100.381 19.2439 100.806 18.688C101.045 18.3278 101.166 17.9025 101.152 17.4708C101.139 17.0391 100.992 16.6222 100.731 16.2776C100.526 16.04 100.242 15.8851 99.9315 15.8421C99.6209 15.7991 99.3052 15.871 99.0438 16.0441C98.5163 16.3682 98.0935 16.8377 97.8263 17.3962C97.5591 17.9547 97.4587 18.5785 97.5373 19.1926C97.6192 19.5393 97.8059 19.8523 98.0721 20.089C97.578 20.2936 97.0476 20.3961 96.5129 20.3903C96.8142 19.5015 97.3038 17.8971 97.4318 17.2418C97.5122 16.8681 97.53 16.4838 97.4846 16.1044C97.4263 15.7786 97.2751 15.4767 97.0493 15.2348C96.8235 14.9929 96.5326 14.8214 96.2116 14.741C94.3812 14.2213 93.0329 16.2475 93.2965 18.1381C93.371 18.8156 93.6618 19.4511 94.1258 19.9504C94.5898 20.4497 95.2024 20.7862 95.8726 20.91C94.9085 23.6217 93.402 27.998 92.6488 29.8661L90.9916 29.4367C92.0537 24.1038 92.1817 24.2318 92.0311 24.164C90.3196 21.9819 89.2246 19.3808 88.86 16.6316C88.6824 15.2685 88.7939 13.8832 89.1871 12.5659C89.5803 11.2487 90.2465 10.029 91.1423 8.98623ZM101.597 20.5485C102.125 19.5919 103.179 17.4979 104.203 18.0101C104.408 18.0926 104.587 18.2296 104.72 18.4061C104.852 18.5827 104.934 18.7921 104.957 19.0119C104.942 20.3376 102.878 20.5711 101.567 20.5485H101.597ZM79.6265 25.3018C79.6265 25.3696 79.6717 25.4524 79.7846 25.8893C79.8143 25.9841 79.8795 26.0637 79.9666 26.1114C80.0536 26.1592 80.1558 26.1714 80.2517 26.1454C80.3475 26.1174 80.4284 26.0525 80.4764 25.9649C80.5245 25.8774 80.5357 25.7743 80.5078 25.6784C80.4324 25.3846 80.3646 25.1361 80.3194 25.0155C80.2756 24.9328 80.2024 24.8694 80.1143 24.8377C80.0263 24.806 79.9295 24.8082 79.843 24.844C79.7564 24.8797 79.6863 24.9464 79.6463 25.031C79.6062 25.1157 79.5992 25.2122 79.6265 25.3018Z"/>
  <path class="anim-2" fill="#4ECDC4" d="M47.0415 73.1786C46.7553 73.4573 47.1394 74.3687 47.1997 75.1596C47.1997 75.2274 47.1997 75.5212 47.1545 75.5438C46.7402 75.6793 46.356 75.0541 46.1225 74.6775C45.889 74.3009 45.6555 73.7887 45.2864 73.9243C44.5332 74.2783 42.7857 76.5983 42.1002 76.8393C41.7537 76.1765 43.7348 74.2858 43.8026 74.1804C43.8316 74.132 43.8468 74.0765 43.8466 74.02C43.8463 73.9636 43.8306 73.9082 43.8011 73.8601C43.7716 73.8119 43.7294 73.7728 43.6792 73.7469C43.629 73.7211 43.5727 73.7095 43.5163 73.7134C43.3807 73.7134 43.2903 73.8339 43.0794 74.0222C42.4379 74.6483 41.7037 75.1717 40.9026 75.5739C41.6289 74.7406 42.4062 73.9532 43.2301 73.2162C43.2708 73.1744 43.2994 73.1224 43.3129 73.0656C43.3129 73.0656 43.1548 72.6664 42.8459 72.8246C42.4091 73.0656 40.2849 74.2934 39.6145 74.6097C39.5241 74.5495 39.5769 74.4591 39.6145 74.3687C40.6766 73.0656 43.0116 71.4838 44.4428 70.482C44.6108 70.309 44.7506 70.1108 44.8571 69.8945C45.8483 70.8167 46.9056 71.6651 48.0207 72.4329C47.6772 72.6581 47.35 72.9073 47.0415 73.1786ZM11.0125 79.5423C11.1105 79.6176 32.3518 76.4691 33.2633 75.9117C33.3137 75.8748 33.354 75.8258 33.3804 75.7692C33.4067 75.7125 33.4183 75.6501 33.4139 75.5878C33.4139 74.6161 32.1409 65.4944 31.5308 63.2196C31.4555 62.9409 31.3802 62.6622 31.2069 62.5642C30.0545 61.8713 9.74709 65.6977 8.53437 66.4811C8.5015 66.5005 8.47311 66.5267 8.45104 66.5578C8.42897 66.589 8.41373 66.6244 8.40632 66.6619C8.15021 67.5733 10.3572 79.0903 11.0125 79.5423ZM8.86579 66.8427C10.312 66.1873 28.7438 62.8128 30.8529 63.0764C31.3651 64.3946 32.736 74.0512 32.8264 75.4673C31.7794 75.7761 11.2988 79.2937 11.2234 79.3088C11.1481 79.3239 11.1406 79.4142 10.9824 78.9397C10.3195 76.9511 8.82813 68.545 8.86579 66.8427ZM34.9214 76.5816C34.9624 76.5055 34.9807 76.4192 34.9741 76.333C34.9741 75.1354 33.2567 61.8407 32.6466 60.7786C32.5988 60.7003 32.5311 60.636 32.4504 60.5924C32.3697 60.5487 32.2789 60.5272 32.1871 60.53C29.6638 60.2212 8.3772 64.3791 6.97617 65.3508C6.78033 65.4863 6.81046 65.8253 6.83306 66.1869C6.95357 68.1679 9.09278 81.1989 9.84602 81.1236C9.92888 81.1236 9.89875 81.0634 9.7029 81.4626C8.52785 83.8805 6.29826 91.6238 6.34345 93.183C6.34345 93.8383 6.4941 94.6895 7.14188 94.6443C11.7894 94.0718 34.5749 90.4563 41.1281 89.108C41.3842 89.0552 41.5499 88.8217 41.5424 88.4376C41.4651 87.7976 41.271 87.1772 40.9699 86.6072C40.051 84.8823 36.2396 78.0504 34.9214 76.5816ZM9.89121 80.8901C9.30369 80.1369 7.14189 67.1585 7.3076 65.7198C8.96473 64.8612 29.9651 60.8012 32.1645 61.1326C32.7671 62.7897 34.3263 74.7587 34.4243 76.1974C31.7578 77.1164 13.2959 80.0992 9.89121 80.8901Z"/>
  <path class="anim-0" fill="#FFE66D" d="M29.3772 122.417C28.6495 122.222 27.8901 122.174 27.1438 122.277C26.3974 122.38 25.6792 122.631 25.0314 123.016C24.3836 123.401 23.8193 123.911 23.3716 124.517C22.924 125.123 22.602 125.812 22.4248 126.544C22.0902 128.066 22.3736 129.658 23.2127 130.97C24.0517 132.282 25.3778 133.207 26.899 133.542C28.4203 133.877 30.0122 133.593 31.3245 132.754C32.6368 131.915 33.562 130.589 33.8966 129.068C34.0396 128.334 34.0359 127.579 33.8857 126.847C33.7356 126.115 33.442 125.419 33.0219 124.801C32.6018 124.183 32.0634 123.654 31.4379 123.245C30.8123 122.835 30.112 122.554 29.3772 122.417ZM31.7047 128.556C31.4025 129.761 30.6789 130.818 29.6649 131.537C28.6509 132.255 27.4133 132.587 26.1759 132.472C25.04 132.029 24.097 131.198 23.5129 130.128C22.9287 129.057 22.7408 127.815 22.9822 126.62C23.264 125.385 23.9808 124.293 25.0015 123.544C26.0223 122.794 27.2787 122.437 28.5411 122.537C29.6882 123.011 30.6314 123.875 31.2045 124.975C31.7777 126.076 31.9442 127.344 31.6746 128.556H31.7047ZM39.4109 124.564C38.7552 124.338 38.0524 124.283 37.3697 124.406C37.0867 123.757 36.7384 123.139 36.3302 122.56C36.8198 122.116 38.1606 120.88 37.8367 120.3C36.684 118.922 35.3154 117.739 33.7842 116.798C33.1449 116.44 32.4408 116.212 31.7128 116.128C31.2307 116.195 30.0858 118.071 29.8297 118.493C29.664 118.493 29.0765 118.304 29.0313 118.282C29.0313 117.739 28.8731 115.781 28.3835 115.555C27.836 115.354 27.2675 115.215 26.6887 115.141C26.1539 115.058 21.3407 115.939 20.9867 116.587C20.7532 117.024 21.2955 118.673 21.4537 119.133C21.0474 119.357 20.6573 119.608 20.2862 119.886C19.5329 120.421 19.7363 120.398 19.6007 120.338C19.4368 120.26 19.2613 120.209 19.081 120.188C18.4793 119.835 17.7738 119.702 17.0849 119.811C16.3919 120.037 14.7574 123.758 14.4937 124.714C14.4075 124.956 14.3841 125.215 14.4259 125.468C14.6067 125.965 15.8119 126.364 16.3166 126.522C16.1772 127.491 16.1772 128.476 16.3166 129.445C15.6537 129.626 14.2753 130.032 14.3506 130.71C14.4259 131.388 16.1885 135.862 16.9192 136.216C17.3194 136.44 17.762 136.578 18.2186 136.621C18.6752 136.664 19.1357 136.611 19.5706 136.465C19.8155 136.343 20.052 136.204 20.2786 136.051C20.5799 136.277 20.8963 136.48 21.2202 136.676C20.9867 137.256 20.4669 138.552 20.6326 139.139C20.7155 139.448 20.9641 139.546 21.3106 139.674C22.2672 140.02 27.4193 141.256 28.2027 141.12C28.4965 141.075 28.6547 140.766 28.7451 140.472C28.9124 139.804 29.0108 139.12 29.0388 138.431C29.4257 138.393 29.8103 138.335 30.1913 138.258C30.4239 138.667 30.7216 139.036 31.0726 139.35C31.4567 139.621 31.7806 139.486 32.2175 139.207C32.4284 139.478 32.7448 139.855 33.0837 139.892C33.9349 139.99 37.4525 136.676 37.8141 135.998C38.1154 135.433 37.0156 134.424 36.526 133.979C37.0557 133.182 37.4715 132.315 37.7613 131.403C38.3046 131.485 38.8544 131.515 39.4034 131.494C39.652 131.494 39.9382 131.403 40.0437 131.17C40.5031 130.123 40.3676 126.153 40.0437 125.144C39.9985 124.85 39.6595 124.654 39.4109 124.564ZM39.5917 125.257C39.8478 126.236 39.9307 129.934 39.5541 130.891C38.9028 130.955 38.2457 130.925 37.6032 130.801C37.5346 130.789 37.4641 130.803 37.4055 130.841C37.347 130.879 37.3046 130.937 37.2868 131.004C36.9868 132.022 36.5211 132.984 35.9084 133.851C35.8647 133.909 35.845 133.981 35.8535 134.052C35.8619 134.124 35.8978 134.19 35.9536 134.235C36.4821 134.654 36.9311 135.164 37.2793 135.742C36.9027 136.36 33.9575 139.056 33.144 139.282C33.0235 139.282 32.692 138.83 32.6092 138.71C32.3309 138.292 32.0794 137.856 31.8559 137.407C31.8233 137.341 31.7674 137.29 31.6991 137.264C31.6308 137.237 31.5551 137.237 31.4868 137.263C29.3024 138.085 28.4739 137.602 28.4739 138.145C28.4749 138.957 28.3425 139.763 28.0822 140.533C26.312 140.34 24.5688 139.951 22.8848 139.373C22.9662 138.568 23.1907 137.785 23.5477 137.06C23.7737 136.555 22.8698 136.699 21.1825 134.981C21.1282 134.931 21.0569 134.903 20.9829 134.903C20.9089 134.903 20.8376 134.931 20.7833 134.981C20.0301 135.599 19.0508 136.201 18.855 136.103C18.4708 135.915 16.7007 131.9 16.5953 131.087C17.131 130.714 17.7392 130.457 18.3805 130.334C18.4488 130.314 18.5079 130.271 18.5467 130.211C18.5855 130.152 18.6013 130.08 18.5914 130.01C18.4068 128.943 18.4068 127.853 18.5914 126.786C18.6029 126.72 18.5891 126.653 18.5527 126.597C18.5164 126.541 18.4602 126.501 18.3955 126.485C17.8277 126.336 17.281 126.116 16.7685 125.829C16.6028 125.709 16.6179 125.716 16.6329 125.588C17.1205 123.83 17.9024 122.167 18.9454 120.67C19.3521 120.557 20.4519 121.363 20.8285 121.649C20.8678 121.687 20.9205 121.708 20.9754 121.708C21.0302 121.708 21.0829 121.687 21.1223 121.649C21.4684 121.29 21.841 120.957 22.2371 120.655C23.382 119.788 23.6908 119.901 23.5929 119.6C23.2466 118.844 23.0521 118.028 23.0204 117.197C23.1372 117.1 23.2696 117.024 23.4121 116.971C24.1153 116.693 24.8378 116.467 25.5739 116.293C26.4661 116.045 27.3831 115.896 28.3082 115.849C28.4664 115.917 28.6095 116.602 28.6471 116.813C28.9258 118.319 28.7375 118.628 28.956 118.651C31.1027 118.862 31.5396 119.457 31.6902 119.193C32.1079 118.463 32.5947 117.774 33.144 117.137C33.3022 116.979 33.2946 116.903 33.7692 117.175C35.1868 118.101 36.4566 119.236 37.5354 120.542C37.6484 120.737 36.6691 121.777 35.9536 122.387C35.705 122.605 36.059 122.703 36.7068 123.939C37.3546 125.174 37.2039 125.52 37.5504 125.445C38.2184 125.285 38.9058 125.222 39.5917 125.257Z"/>
  <path class="anim-1" fill="#9D71FD" d="M144.134 62.316C142.555 61.6711 140.899 61.2331 139.208 61.0129C137.972 60.8171 136.519 60.6212 135.291 60.4631C136.474 58.7909 139.976 54.5576 140.564 53.5257C140.729 53.247 140.413 52.8553 140.179 52.6218C138.869 51.2208 136.338 50.6935 134.395 50.3922C133.28 50.2114 128.625 49.639 127.834 50.0156C126.885 50.4676 119.865 61.0129 119.654 62.6173C119.654 62.8885 119.744 62.9939 120.008 63.0919C121.115 63.4986 126.109 64.1313 127.224 64.395C125.717 67.0313 119.021 75.9421 118.366 77.2001C118.207 77.5164 118.305 77.7047 118.494 77.765C119.172 78.0341 119.869 78.2506 120.58 78.4128C120.851 78.4956 121.446 78.1265 122.313 77.5993C126.199 75.2642 142.876 64.2519 144.157 62.8282C144.192 62.7948 144.22 62.7542 144.238 62.7091C144.256 62.664 144.265 62.6155 144.262 62.567C144.26 62.5184 144.248 62.4708 144.226 62.4275C144.203 62.3842 144.172 62.3462 144.134 62.316ZM127.947 71.3549C121.544 75.5806 119.382 76.8159 119.307 76.8686C120.339 75.2944 126.749 66.5116 127.849 64.41C127.868 64.3694 127.878 64.3251 127.878 64.2802C127.878 64.2353 127.867 64.1911 127.848 64.1506C127.828 64.1102 127.8 64.0746 127.765 64.0465C127.73 64.0184 127.689 63.9985 127.646 63.9882C126.892 63.717 121.409 63.1295 120.113 62.67C120.279 61.269 127.118 50.6785 127.947 50.2566C128.775 49.8348 136.812 50.7914 138.319 51.8686C137.528 53.4127 133.159 58.821 132.451 60.0789C132.308 60.335 132.263 60.5836 132.542 60.6514C132.82 60.7192 139.901 61.5477 141.445 62.0524C139.562 63.6267 130.056 69.9388 127.947 71.3248V71.3549Z"/>
  <path class="anim-2" fill="#F26419" d="M126.341 108.994C122.797 108.54 119.37 107.42 116.24 105.695C118.003 102.358 120.18 98.5541 123.773 99.9853C127.772 101.575 127.69 104.866 126.341 108.971V108.994ZM123.976 99.4278C117.355 96.784 114.282 109.582 108.874 120.579C108.839 121.041 108.855 121.506 108.919 121.965C108.919 123.117 109.047 130.748 109.717 131.614C109.898 131.96 110.659 131.614 111.013 131.395C114.02 129.534 116.853 127.406 119.479 125.038C119.502 125.012 119.518 124.983 119.529 124.95C119.539 124.918 119.543 124.884 119.539 124.85C120.94 122.854 126.191 112.459 127.464 107.246C128.352 103.556 127.471 100.806 123.976 99.4278ZM113.807 128.578C113.576 128.384 113.323 128.218 113.054 128.081C112.036 127.564 110.86 127.451 109.762 127.765C109.687 126.868 109.258 121.038 109.258 120.986C114.899 123.049 113.159 122.153 118.749 124.933C118.161 125.49 115.954 127.034 113.807 128.563V128.578ZM117.694 106.779C118.429 107.181 119.183 107.545 119.954 107.872C118.227 110.584 116.702 113.418 115.389 116.353C114.124 118.997 114.169 118.982 112.881 121.867C112.128 121.626 111.374 121.4 110.621 121.174C111.435 119.554 117.219 107.713 117.694 106.764V106.779ZM113.175 121.942C115.623 117.551 118.116 112.09 120.255 107.97C121.008 108.286 121.762 108.542 122.515 108.768C122.116 109.521 120.948 111.525 120.639 112.105C120.33 112.685 117.235 118.786 117.016 119.253C116.67 120.006 115.721 122.108 115.427 122.778C114.658 122.439 113.92 122.183 113.144 121.927L113.175 121.942ZM115.698 122.876C116.157 122.04 118.048 118.53 118.282 118.078C118.636 117.378 122.583 109.31 122.801 108.843C123.494 109.039 124.225 109.205 124.692 109.295C123.313 113.062 119.344 120.315 117.912 123.893C116.609 123.283 116.316 123.132 115.668 122.861L115.698 122.876ZM116.157 105.913L117.506 106.666C114.789 111.294 112.422 116.118 110.425 121.099L109.295 120.752C113.672 111.427 113.875 110.207 116.127 105.898L116.157 105.913ZM119.261 124.548L118.123 124.006C119.351 121.596 123.193 115.412 124.948 109.348C125.37 109.423 125.784 109.491 126.183 109.544C124.247 114.709 121.923 119.72 119.231 124.533L119.261 124.548ZM71.558 139.387V137.708C74.684 139.214 81.8398 142.287 84.5514 143.146C85.2444 143.372 85.3047 143.342 85.6662 143.146C87.7376 141.82 95.0516 133.58 96.3924 132.322V133.911C92.3249 137.986 85.4176 145.127 85.2896 144.72C84.5439 144.675 72.2058 139.689 71.558 139.387ZM71.6559 135.915C75.0681 137.421 82.819 140.916 84.6041 141.255C84.913 141.316 85.0335 141.338 85.621 140.871C88.1293 138.86 96.2869 130.326 96.3622 130.416C96.3659 130.439 96.3659 130.462 96.3622 130.484V131.99C94.6825 133.339 85.3423 143.146 85.1917 142.679C84.4384 142.679 72.1983 137.685 71.5731 137.406C71.558 137.09 71.6258 136.246 71.6559 135.915Z"/>
  <path class="anim-0" fill="#FF9F1C" d="M23.2157 36.5171C22.9343 37.1526 22.6977 37.807 22.5076 38.4755C22.4964 38.5828 22.526 38.6904 22.5905 38.7768C23.3513 39.9218 31.1473 48.7121 33.1811 49.9474C33.4598 50.1206 33.7912 50.2412 33.9946 49.9926C35.4719 48.1543 37.4 46.7296 39.5911 45.8573C41.3745 45.2263 43.2443 44.8732 45.135 44.8103C46.6415 44.6747 46.9051 44.5241 47.4851 43.5373C48.1693 42.2387 49.077 41.0709 50.1666 40.0875C51.556 38.8727 53.0981 37.8446 54.7539 37.0293C54.8284 36.9871 54.8867 36.9211 54.9194 36.842C54.9522 36.7628 54.9575 36.675 54.9346 36.5924C54.68 35.9445 54.3433 35.3319 53.9328 34.7696C54.204 34.6792 54.5053 34.5963 54.5053 34.3252C54.5053 33.5719 47.937 24.066 46.1142 22.2733C45.9259 22.085 45.6547 21.8364 45.4062 21.8515C41.6399 22.0624 37.9717 25.6177 35.8475 28.7211C33.4146 28.6307 31.8403 28.4122 29.0684 29.5798C27.1115 30.4104 25.3472 31.6362 23.8861 33.1803C23.6601 33.4138 22.1235 35.0408 22.1009 35.1688C22.0783 35.2969 22.1235 35.2969 23.2157 36.5171ZM53.3453 36.3062C50.2043 36.841 48.2007 39.4547 46.7243 42.2945C46.069 43.5599 46.1293 43.6202 45.4363 43.6051C44.2245 43.5365 43.0089 43.5819 41.8057 43.7407C40.9231 43.8726 40.0553 44.0895 39.2145 44.3885C37.3013 45.0664 35.1094 47.2357 33.9418 48.8477C33.917 48.8808 33.8855 48.9084 33.8493 48.9285C33.8131 48.9486 33.7731 48.9608 33.7318 48.9644C33.6906 48.9679 33.649 48.9627 33.6099 48.9491C33.5708 48.9355 33.5351 48.9137 33.5049 48.8853C31.0569 46.362 26.7258 41.9329 24.5489 39.387C24.4435 39.274 24.6242 39.1083 24.7297 39.2288C26.1383 40.7353 29.7764 44.3433 33.6782 48.2677C34.9964 46.5879 37.0301 44.5542 39.0413 43.8461C40.138 43.4549 41.2791 43.2019 42.4384 43.0929C43.524 43.0105 44.6143 43.0105 45.6999 43.0929C46.1443 42.5807 48.3438 36.7657 53.3302 36.1179C53.3448 36.1286 53.3568 36.1425 53.3653 36.1585C53.3738 36.1744 53.3786 36.1921 53.3794 36.2102C53.3801 36.2283 53.3767 36.2463 53.3695 36.263C53.3623 36.2796 53.3515 36.2944 53.3378 36.3062H53.3453ZM45.3986 22.4616C46.9051 23.5162 53.0365 32.5927 53.8349 34.1821C52.4495 34.621 51.1119 35.199 49.8427 35.907C48.6408 36.5095 47.5885 37.3725 46.7624 38.4332C45.9362 39.4939 45.3571 40.7255 45.0672 42.0384C42.3631 37.6394 38.5893 32.7961 36.081 29.2333C36.2317 29.1354 40.4649 22.7554 45.3986 22.4616ZM29.2341 29.994C31.9834 28.8868 33.5049 29.1429 35.7797 29.2408C38.0395 33.0974 42.0994 38.5358 44.7734 42.0986C42.3054 41.5146 39.7083 41.8718 37.4896 43.1004C36.1564 43.8537 34.5294 45.6614 33.5275 46.7838C32.0813 45.6238 23.7354 36.7355 22.3946 35.2291C24.4585 32.894 26.3642 31.139 29.2341 29.9639V29.994ZM53.7521 14.6807C53.9705 15.1251 54.9874 14.9594 55.4318 14.8162C55.6653 14.7409 55.8159 14.6581 55.8385 14.4321C55.9063 13.8672 55.9817 8.9711 55.7256 8.49656C55.6991 8.4468 55.6585 8.40596 55.6089 8.37916C55.5594 8.35236 55.503 8.34079 55.4468 8.34591C54.6432 8.34368 53.8436 8.46044 53.0741 8.6924C52.7653 8.88071 53.4809 14.1835 53.7521 14.6807ZM53.2323 8.87318C53.9281 8.77364 54.6318 8.74085 55.3339 8.77526C55.3791 9.33265 55.2585 14.1609 55.251 14.2363C54.9328 14.3503 54.593 14.3915 54.2567 14.3568C54.204 14.1835 54.1136 13.7165 54.0006 13.129C53.6687 11.7251 53.4123 10.3045 53.2323 8.87318ZM22.937 20.6011C23.1027 17.6786 24.805 16.3227 26.5827 15.9762C26.078 17.8292 26.1609 20.2396 27.9912 20.5484C28.865 20.6915 29.2943 20.2396 29.9271 19.7123C32.6312 17.4526 30.4468 15.1929 27.3962 15.351C28.5336 12.2326 31.1624 9.69421 34.6499 9.61135C34.6818 9.61135 34.7125 9.59866 34.7351 9.57605C34.7577 9.55345 34.7704 9.5228 34.7704 9.49083C34.7704 9.45887 34.7577 9.42822 34.7351 9.40562C34.7125 9.38301 34.6818 9.37032 34.6499 9.37032C30.8837 9.29499 27.9234 12.0067 26.7559 15.3962C24.7448 15.7427 22.7487 17.2492 22.6959 20.5559C22.693 20.5718 22.6932 20.588 22.6965 20.6038C22.6998 20.6195 22.7062 20.6345 22.7153 20.6478C22.7244 20.6611 22.736 20.6724 22.7495 20.6812C22.763 20.69 22.778 20.6961 22.7939 20.6991C22.8097 20.702 22.8259 20.7018 22.8417 20.6985C22.8575 20.6952 22.8724 20.6888 22.8857 20.6797C22.899 20.6706 22.9104 20.659 22.9192 20.6455C22.928 20.632 22.934 20.617 22.937 20.6011ZM27.2229 15.8858C28.3452 15.8105 30.0174 16.157 30.4769 17.1739C30.7406 17.7539 30.4769 18.4695 29.5429 19.2528C29.2893 19.5069 29.0001 19.7226 28.6842 19.8931C27.5543 20.3752 26.304 18.9817 27.2229 15.8858Z"/>
  <path class="anim-1" fill="#2EC4B6" d="M95.4734 126.899C95.7442 127.355 95.8897 127.874 95.8952 128.405C95.8926 128.574 95.8512 128.74 95.7741 128.89C95.697 129.04 95.5864 129.171 95.4508 129.271C94.8181 128.849 93.6204 128.066 92.2044 127.147C92.9802 125.618 94.7051 125.595 95.4433 126.899H95.4734ZM95.6617 129.437C95.962 129.188 96.1765 128.852 96.2752 128.475C96.3739 128.098 96.3516 127.699 96.2116 127.335C96.1477 126.811 95.907 126.323 95.5292 125.953C95.1513 125.584 94.6588 125.353 94.1327 125.301C93.6067 125.248 93.0783 125.376 92.6347 125.664C92.1911 125.952 91.8587 126.382 91.6921 126.883C90.728 126.258 89.681 125.595 88.6792 124.963C89.4324 123.961 91.6469 124.405 91.8729 125.226C91.8779 125.258 91.8954 125.287 91.9215 125.306C91.9477 125.325 91.9803 125.333 92.0123 125.328C92.0442 125.323 92.0729 125.306 92.092 125.279C92.111 125.253 92.1189 125.221 92.114 125.189C92.001 123.878 89.2742 123.11 88.1745 124.654C87.2028 124.059 85.9976 123.336 84.9883 122.786C85.8545 122.033 87.7904 122.454 88.0013 123.238C88.0112 123.265 88.0303 123.287 88.0552 123.301C88.0801 123.315 88.1091 123.32 88.1372 123.314C88.1653 123.309 88.1905 123.294 88.2083 123.271C88.2262 123.249 88.2356 123.221 88.2348 123.193C88.1368 121.972 85.6135 121.151 84.4686 122.492C83.9888 122.223 83.4844 122.001 82.9621 121.829C82.8667 121.79 82.7618 121.779 82.6602 121.797C82.5587 121.816 82.4647 121.864 82.3896 121.935C80.4839 124.307 74.0588 130.469 71.091 131.184C71.0164 131.196 70.9461 131.226 70.8871 131.273C70.8281 131.321 70.7826 131.382 70.7551 131.453C70.7276 131.523 70.7191 131.599 70.7305 131.674C70.7419 131.748 70.7727 131.819 70.8198 131.877C71.4715 132.539 72.2178 133.1 73.0344 133.542C72.2811 134.295 71.6936 134.973 71.2567 135.463C71.0308 135.704 70.9102 140.314 71.1061 141.331C71.1352 141.43 71.1995 141.516 71.2869 141.572C72.2359 142.219 84.461 147.507 85.7114 146.799C86.5475 146.325 96.5279 135.937 96.6861 135.621C96.9272 135.124 96.8443 131.81 96.8292 130.484C96.769 130.085 96.0233 129.655 95.6617 129.437ZM71.3697 131.719C74.5785 130.77 80.6722 124.895 82.721 122.349C83.2141 122.486 83.6894 122.681 84.1371 122.929C83.3839 124.33 84.1899 125.867 84.4761 125.648C84.6343 125.528 84.348 125.482 84.3028 124.744C84.2836 124.205 84.4057 123.67 84.6569 123.193C85.6964 123.735 86.9166 124.443 87.9485 125.038C87.3158 126.447 88.0766 127.84 88.3402 127.637C88.6039 127.433 88.2197 127.479 88.1745 126.74C88.1561 126.256 88.2489 125.774 88.4457 125.332C89.5077 125.957 90.5924 126.605 91.5867 127.215C91.4335 127.59 91.3727 127.997 91.4094 128.401C91.4461 128.804 91.5792 129.193 91.7976 129.535C91.8075 129.548 91.8198 129.559 91.8339 129.567C91.8479 129.575 91.8635 129.58 91.8795 129.582C91.8956 129.584 91.912 129.583 91.9276 129.579C91.9433 129.575 91.958 129.567 91.9708 129.557C91.9837 129.548 91.9945 129.535 92.0026 129.521C92.0107 129.507 92.0159 129.492 92.018 129.476C92.0201 129.459 92.019 129.443 92.0148 129.427C92.0106 129.412 92.0033 129.397 91.9934 129.384C91.8581 129.085 91.7912 128.759 91.7977 128.431C91.8042 128.103 91.884 127.78 92.0311 127.486C93.7862 128.556 95.2022 129.452 95.6391 129.746C95.5563 129.821 87.7 136.811 85.026 138.89C83.2709 138.431 74.0588 133.858 71.3697 131.719ZM85.3725 146.294C84.6192 146.724 73.1474 142.061 71.6107 141.112C71.553 140.632 71.5254 140.149 71.5279 139.666C74.8271 141.293 84.4234 145.345 85.3047 145.308C86.5927 145.24 95.6994 134.988 96.3472 134.273C96.3546 134.658 96.3167 135.042 96.2342 135.418C96.1061 135.666 85.8696 146.016 85.3725 146.294Z"/>
  <path class="anim-2" fill="#FF6B6B" d="M22.9665 103.834C23.0192 104.64 23.0568 105.341 23.0568 105.996C23.0568 106.096 23.0965 106.192 23.1672 106.262C23.2378 106.333 23.3336 106.373 23.4335 106.373C23.5334 106.373 23.6291 106.333 23.6998 106.262C23.7704 106.192 23.8101 106.096 23.8101 105.996C23.8101 105.296 23.7724 104.603 23.7197 103.782C23.7127 103.682 23.6663 103.589 23.5907 103.523C23.5152 103.457 23.4166 103.424 23.3167 103.431C23.2168 103.438 23.1238 103.485 23.0581 103.56C22.9924 103.636 22.9595 103.734 22.9665 103.834ZM21.0156 101.959C21.1155 101.959 21.2112 101.919 21.2819 101.848C21.3525 101.778 21.3922 101.682 21.3922 101.582C21.3922 101.482 21.3525 101.386 21.2819 101.316C21.2112 101.245 21.1155 101.205 21.0156 101.205C20.1041 101.205 19.3434 101.273 18.5901 101.258C18.4895 101.258 18.393 101.298 18.3211 101.368C18.2493 101.438 18.208 101.534 18.206 101.635C18.206 101.735 18.2457 101.831 18.3163 101.901C18.3869 101.972 18.4827 102.011 18.5826 102.011C19.3584 102.027 20.2096 101.996 21.0156 101.959ZM22.7631 97.3037C22.8083 97.9967 22.8535 98.7424 22.8535 99.4655C22.8554 99.5648 22.8957 99.6595 22.9659 99.7297C23.0361 99.7999 23.1308 99.8402 23.2301 99.8421C23.33 99.8421 23.4258 99.8024 23.4964 99.7318C23.567 99.6612 23.6067 99.5654 23.6067 99.4655C23.6067 98.7123 23.5615 97.959 23.5163 97.251C23.5093 97.1511 23.4629 97.0581 23.3874 96.9924C23.3118 96.9267 23.2132 96.8937 23.1133 96.9007C23.0135 96.9077 22.9204 96.9541 22.8548 97.0297C22.7891 97.1052 22.7561 97.2038 22.7631 97.3037ZM28.322 101.861C28.3715 101.859 28.4201 101.847 28.465 101.826C28.51 101.806 28.5504 101.776 28.584 101.74C28.6176 101.704 28.6437 101.661 28.6607 101.614C28.6778 101.568 28.6856 101.519 28.6836 101.469C28.676 101.371 28.6314 101.279 28.5587 101.211C28.4861 101.144 28.3907 101.107 28.2919 101.108C27.3805 101.145 26.6197 101.175 25.8589 101.16C25.759 101.16 25.6632 101.2 25.5926 101.271C25.522 101.341 25.4823 101.437 25.4823 101.537C25.4823 101.637 25.522 101.733 25.5926 101.803C25.6632 101.874 25.759 101.914 25.8589 101.914C26.6649 101.929 27.5085 101.898 28.322 101.861ZM10.2226 81.1161C10.8554 80.9579 32.4056 77.3499 34.3791 76.8301C35.4562 77.832 40.3221 86.4867 40.6385 87.2249C36.3149 87.9781 10.6671 92.264 6.89332 92.8365C6.94604 90.5542 9.28862 82.5774 10.2226 81.1161ZM13.0545 88.9276C13.7098 88.8297 27.6146 87.1575 32.6387 85.7941C32.6697 85.7861 32.6962 85.7662 32.7125 85.7386C32.7287 85.7111 32.7333 85.6782 32.7253 85.6472C32.7174 85.6163 32.6974 85.5897 32.6698 85.5735C32.6423 85.5573 32.6094 85.5526 32.5785 85.5606C31.5917 85.764 19.5549 87.3684 13.0394 88.6941C13.0214 88.6908 13.0029 88.6918 12.9853 88.6967C12.9677 88.7017 12.9515 88.7106 12.9378 88.7228C12.9242 88.735 12.9135 88.7501 12.9065 88.767C12.8996 88.7839 12.8966 88.8022 12.8978 88.8205C12.899 88.8387 12.9043 88.8565 12.9133 88.8723C12.9224 88.8882 12.9349 88.9019 12.95 88.9122C12.9651 88.9225 12.9824 88.9293 13.0005 88.9319C13.0186 88.9346 13.037 88.9331 13.0545 88.9276Z"/>
  <path class="anim-0" fill="#4ECDC4" d="M137.301 29.271C136.45 30.3858 134.039 30.9658 132.925 30.7775C132.51 30.7097 132.171 30.5365 132.081 30.1071C131.81 28.6006 134.408 27.7796 135.96 27.7269C136.592 27.6784 137.222 27.8399 137.753 28.1863C137.696 28.5802 137.54 28.9532 137.301 29.271ZM130.431 23.8703C131.339 23.3364 132.411 23.1542 133.444 23.3581C134.579 23.3784 135.663 23.8321 136.474 24.6263C137.285 25.4204 137.761 26.4948 137.806 27.6289C137.123 27.233 136.325 27.084 135.546 27.2071C133.655 27.3728 131.185 28.3972 131.516 30.2201C131.787 31.7266 133.776 31.5232 135.282 31.1164C136.789 30.7097 137.986 29.9715 138.295 28.5178C140.126 29.851 140.555 32.186 140.63 34.4684C140.63 34.5003 140.643 34.531 140.665 34.5536C140.688 34.5762 140.719 34.5889 140.751 34.5889C140.783 34.5889 140.813 34.5762 140.836 34.5536C140.859 34.531 140.871 34.5003 140.871 34.4684C140.924 31.9149 140.464 29.4141 138.378 27.9604C138.399 27.3064 138.288 26.6549 138.05 26.0452C137.813 25.4356 137.454 24.8805 136.995 24.4136C136.537 23.9467 135.988 23.5777 135.383 23.329C134.778 23.0802 134.129 22.9569 133.474 22.9664C132.429 22.8137 131.363 23.0322 130.461 23.584C130.183 23.7196 130.311 23.923 130.431 23.8703ZM120.189 35.0721C120.228 35.0473 120.256 35.0084 120.267 34.9636C120.278 34.9188 120.272 34.8714 120.249 34.8311C119.985 34.3415 119.194 32.6166 119.744 32.4207C120.061 32.3002 120.339 32.4961 120.573 32.7597C120.929 33.212 121.207 33.7214 121.394 34.2662C121.408 34.3105 121.434 34.3501 121.468 34.3809C121.503 34.4117 121.546 34.4325 121.591 34.441C121.637 34.4495 121.684 34.4454 121.727 34.4292C121.771 34.413 121.809 34.3853 121.838 34.349C122.592 33.5129 124.354 31.6072 125.348 31.095C126.102 30.7033 126.282 31.4264 124.437 33.1137C124.013 33.4369 123.606 33.7813 123.217 34.1456C123.195 34.1752 123.184 34.2108 123.184 34.2473C123.184 34.2839 123.195 34.3194 123.217 34.349C123.217 34.5449 123.375 34.7633 123.646 34.5599C124.301 33.9852 124.993 33.4542 125.717 32.9706C126.087 32.7078 126.517 32.5421 126.968 32.4885C126.742 33.1815 124.64 35.0646 124.46 35.2755C124.402 35.3269 124.367 35.3987 124.363 35.4756C124.358 35.5524 124.383 35.6281 124.433 35.6863C124.484 35.7446 124.555 35.7807 124.632 35.787C124.708 35.7933 124.785 35.7692 124.844 35.7199C125.68 35.1776 127.141 33.9121 127.646 34.1005C128.15 34.2888 126.651 35.6898 126.275 36.0212C124.113 37.8968 124.67 36.6916 122.17 39.2376C121.081 38.0451 119.831 37.0107 118.456 36.1643L120.189 35.0721ZM126.981 15.0649C127.787 14.0706 127.245 12.3382 124.993 12.3306C124.119 12.3306 123.697 13.2194 123.758 14.0706C123.893 16.0968 126.175 16.0366 126.981 15.0649ZM124.285 14.0329C124.285 13.5358 124.518 12.888 125.038 12.8956C126.251 12.8956 126.808 13.4605 126.808 14.0857C126.778 15.5093 124.187 16.2475 124.285 14.0329Z"/>
  <path class="anim-1" fill="#FFE66D" d="M15.4498 49.149C15.2636 49.0183 15.0435 48.9445 14.8162 48.9365C14.5889 48.9284 14.3642 48.9866 14.1693 49.1038C14.0273 49.1671 13.8992 49.2577 13.7923 49.3705C13.6854 49.4833 13.6018 49.6161 13.5461 49.7612C13.4905 49.9064 13.4641 50.061 13.4682 50.2164C13.4724 50.3718 13.5071 50.5248 13.5704 50.6667C13.6337 50.8087 13.7244 50.9368 13.8372 51.0437C13.95 51.1506 14.0828 51.2342 14.2279 51.2899C14.373 51.3455 14.5277 51.3719 14.6831 51.3678C14.8384 51.3636 14.9915 51.3289 15.1334 51.2656C15.3602 51.216 15.5665 51.0986 15.7251 50.9291C15.8836 50.7596 15.9869 50.5459 16.0212 50.3163C16.0555 50.0867 16.0192 49.8522 15.9172 49.6437C15.8151 49.4352 15.6521 49.2627 15.4498 49.149ZM14.9526 50.6554C14.4254 50.8211 14.109 50.6554 13.9809 50.3993C13.7399 49.8645 14.0412 49.0435 14.8246 49.2845C15.3744 49.4879 15.8189 50.4144 14.9526 50.6931V50.6554ZM14.7191 42.7916C14.7914 42.8286 14.8714 42.8479 14.9526 42.8479C15.0338 42.8479 15.1139 42.8286 15.1861 42.7916C15.4771 42.6121 15.7079 42.3498 15.849 42.0384C15.8681 41.9885 15.8741 41.9346 15.8661 41.8818C15.8582 41.8289 15.8367 41.7791 15.8038 41.7371C15.4422 41.3077 11.4953 36.7355 11.0132 37.0218C10.4213 37.405 9.85973 37.8331 9.33346 38.3023C9.31225 38.3213 9.29525 38.3445 9.28357 38.3704C9.2719 38.3964 9.2658 38.4245 9.26566 38.4529C9.2506 38.8446 13.6345 42.3547 14.7191 42.7916ZM11.1036 37.2176C11.6534 37.6168 13.5064 39.9067 15.2238 41.9329C15.1499 42.0492 15.0584 42.1534 14.9526 42.2417C13.147 41.0861 11.423 39.8076 9.79293 38.4153C10.2016 37.9862 10.6395 37.586 11.1036 37.2176Z"/>
  <path class="anim-2" fill="#9D71FD" d="M60.3061 130.568C58.9502 129.747 57.0521 127.796 56.7658 126.267C57.0747 125.875 57.3985 125.514 57.6998 125.107C58.7206 126.665 59.9934 128.042 61.466 129.182C61.0523 129.621 60.665 130.083 60.3061 130.568Z"/>
  <path class="anim-0" fill="#F26419" d="M137.738 88.7318C137.689 88.7347 137.64 88.7473 137.596 88.7691C137.552 88.7908 137.513 88.8212 137.48 88.8584C137.448 88.8956 137.424 88.9389 137.408 88.9857C137.393 89.0325 137.387 89.082 137.391 89.1311C137.436 89.824 137.482 90.5697 137.482 91.2928C137.482 91.3927 137.521 91.4885 137.592 91.5592C137.663 91.6298 137.758 91.6695 137.858 91.6695C137.958 91.6695 138.054 91.6298 138.125 91.5592C138.195 91.4885 138.235 91.3927 138.235 91.2928C138.235 90.5396 138.19 89.7864 138.137 89.0783C138.134 89.0291 138.121 88.981 138.1 88.9368C138.078 88.8926 138.048 88.8532 138.01 88.8209C137.973 88.7886 137.93 88.7641 137.883 88.7488C137.836 88.7335 137.787 88.7277 137.738 88.7318ZM135.403 86.5022C134.499 86.5022 133.738 86.555 132.977 86.5625C132.877 86.5625 132.782 86.6022 132.711 86.6728C132.64 86.7434 132.601 86.8392 132.601 86.9391C132.601 87.039 132.64 87.1348 132.711 87.2054C132.782 87.2761 132.877 87.3157 132.977 87.3157C133.791 87.3157 134.634 87.3157 135.448 87.2555C135.548 87.2495 135.641 87.2041 135.708 87.1292C135.774 87.0543 135.808 86.9561 135.802 86.8563C135.796 86.7564 135.75 86.663 135.676 86.5966C135.601 86.5302 135.503 86.4962 135.403 86.5022ZM138.032 84.7622C138.032 84.009 137.986 83.2558 137.934 82.5477C137.927 82.4478 137.88 82.3548 137.805 82.2891C137.729 82.2234 137.63 82.1905 137.531 82.1975C137.431 82.2045 137.338 82.2508 137.272 82.3264C137.206 82.402 137.173 82.5006 137.18 82.6004C137.226 83.2934 137.271 84.0391 137.271 84.7622C137.271 84.8621 137.31 84.9579 137.381 85.0286C137.452 85.0992 137.547 85.1389 137.647 85.1389C137.748 85.1389 137.845 85.0994 137.916 85.029C137.988 84.9586 138.03 84.8628 138.032 84.7622ZM142.709 86.4043C141.956 86.442 141.12 86.4646 140.284 86.4646C140.234 86.4625 140.184 86.4706 140.138 86.4882C140.091 86.5059 140.049 86.5327 140.013 86.5672C139.977 86.6017 139.948 86.6431 139.929 86.6889C139.91 86.7346 139.899 86.7839 139.9 86.8337C139.9 86.9342 139.939 87.0308 140.009 87.1027C140.08 87.1745 140.176 87.2158 140.276 87.2178C141.135 87.2178 141.828 87.2178 142.739 87.1576C142.789 87.1556 142.837 87.1439 142.882 87.1232C142.927 87.1025 142.968 87.0731 143.001 87.0367C143.035 87.0003 143.061 86.9576 143.078 86.9112C143.095 86.8647 143.103 86.8153 143.101 86.7659C143.092 86.6679 143.046 86.5769 142.974 86.5101C142.902 86.4434 142.807 86.4057 142.709 86.4043Z"/>
  <path fill="black" d="M122.637 40.3975C122.825 40.1339 122.584 39.795 122.381 39.5313C122.957 38.9388 123.596 38.4109 124.286 37.957C125.452 37.3763 126.517 36.6134 127.442 35.6973C127.827 35.2981 128.55 34.4771 128.279 33.995C128.007 33.5129 127.525 33.4828 126.87 33.7615C127.154 33.4634 127.386 33.1196 127.555 32.7446C127.766 32.1571 127.269 31.6825 126.192 32.1194C126.584 31.4942 126.674 30.8389 126.011 30.5226C125.476 30.2665 124.693 30.8766 124.241 31.2758C123.354 32.0512 122.521 32.8868 121.748 33.7766C121.273 32.7823 120.52 31.6374 119.579 31.9989C118.637 32.3605 119.368 33.9799 119.85 34.8612L118.14 36.0438C117.881 35.9043 117.589 35.8391 117.296 35.8555C115.353 36.1869 106.427 42.9812 105.523 42.9812C104.83 42.9812 94.9325 38.2357 86.3757 36.8648C86.3592 36.8135 86.3285 36.7679 86.2872 36.7333C86.2459 36.6986 86.1956 36.6763 86.1422 36.669C84.6497 36.4143 83.1366 36.3008 81.6228 36.33C81.5769 36.3331 81.5322 36.3462 81.4919 36.3683C81.4516 36.3904 81.4165 36.4211 81.3893 36.4581H80.7565C80.6059 35.848 80.0485 34.4394 79.8527 33.8971C80.3649 33.4527 81.0729 33.2267 81.442 32.5111C82.1199 31.1854 82.0898 28.8805 81.9015 27.4041C82.7526 26.7564 82.7752 25.7169 82.5794 24.6548C82.5041 24.2255 82.2706 23.2538 81.909 23.0127C81.7056 22.8772 81.2763 23.0127 80.9072 23.1483C80.5381 22.2896 80.5381 22.6813 80.6888 22.3348C80.7587 22.1751 80.7995 22.0042 80.8093 21.8302C81.2085 21.9507 82.0371 21.1522 81.7508 20.0977C81.6008 19.7202 81.4168 19.3571 81.201 19.013C81.3064 18.7569 81.5324 18.4481 80.8243 17.5066C80.5194 17.1776 80.1235 16.9469 79.6869 16.8437H79.3405C79.0906 16.4808 78.7236 16.2149 78.301 16.0905C77.663 15.9278 76.9866 16.0225 76.4179 16.3541C76.2672 16.4671 76.1467 16.6177 75.9961 16.7232C75.6555 16.5164 75.2647 16.407 74.8662 16.407C74.4677 16.407 74.0769 16.5164 73.7363 16.7232C73.537 16.8014 73.3554 16.9192 73.2027 17.0693C73.05 17.2195 72.9291 17.3989 72.8475 17.5969C72.4784 17.4696 72.0869 17.4206 71.6978 17.453C71.3087 17.4854 70.9307 17.5986 70.5878 17.7853C69.2866 18.4909 68.3132 19.6778 67.8761 21.092C67.864 21.3052 67.864 21.519 67.8761 21.7322H67.7933C66.6634 21.5665 65.2247 24.2481 66.3772 26.3345C66.5128 26.5831 66.686 26.8166 66.8517 27.0878C67.3338 27.841 67.1455 28.067 68.2226 28.9859C68.539 29.2571 68.5917 29.2345 68.7875 29.4002C68.9834 29.5659 68.9081 29.4831 69.021 29.9049C69.0827 30.1534 69.1929 30.3872 69.3455 30.5928C69.4981 30.7983 69.6899 30.9716 69.9099 31.1026C69.9899 31.8393 70.3041 32.531 70.8062 33.076C70.9653 33.254 71.1507 33.4064 71.3561 33.528C71.4115 33.5592 71.4734 33.5773 71.5369 33.5807C71.7628 34.9817 72.0415 36.8046 72.1621 37.5804L71.4917 37.942C70.6146 38.2949 69.7616 38.705 68.9382 39.1698C68.8736 39.2145 68.828 39.2816 68.8101 39.3581C68.0117 39.7799 67.2585 40.1791 66.8291 40.4352C60.8484 43.983 43.8628 67.3711 43.6896 68.4407C43.6705 68.502 43.6705 68.5677 43.6896 68.629C43.933 69.0174 44.2297 69.3699 44.5709 69.676C44.4657 69.8678 44.3394 70.0472 44.1942 70.2108C42.6878 71.1976 40.428 72.6664 39.2153 73.977C39.1303 74.0528 39.0665 74.1495 39.0302 74.2576C38.9939 74.3656 38.9864 74.4812 39.0085 74.593C39.0305 74.7048 39.0814 74.8089 39.1559 74.8951C39.2305 74.9812 39.3263 75.0464 39.4338 75.0843C39.6597 75.1596 39.6974 75.137 41.1662 74.331C40.7625 74.6851 40.4324 75.1151 40.1945 75.5965C40.0966 76.0108 40.4732 76.2518 40.9478 76.1765C41.2148 76.1065 41.469 75.9946 41.701 75.8451C41.5652 76.0548 41.4929 76.2994 41.4929 76.5493C41.4929 76.7993 41.5652 77.0438 41.701 77.2536C42.4543 78.2027 44.4277 75.2123 45.4672 74.4742C45.889 75.009 46.4615 76.2593 47.3729 75.9279C48.1638 75.6341 47.2976 73.8942 47.3729 73.3895C47.6794 73.0952 48.0067 72.8233 48.3521 72.576C48.9332 73.0069 49.5976 73.3122 50.303 73.4723C51.5459 73.4723 64.5167 60.381 65.5034 59.334C65.1494 62.6633 63.3642 76.9523 63.7408 79.7318C63.9141 80.9897 66.9346 81.1705 68.2076 81.2383C67.8234 90.2771 67.5673 103.971 67.4995 104.114C65.5034 108.415 64.9611 109.59 64.2907 110.893C63.0704 113.228 57.9333 121.845 57.3534 123.804C57.2705 124.113 57.263 124.233 57.5869 124.806C56.6162 125.826 55.7153 126.911 54.8903 128.052C54.476 128.805 56.2536 135.826 57.5115 138.311C57.7978 138.869 58.2648 139.727 58.89 139.705C60.7731 139.637 60.7655 132.873 60.7128 130.982C60.7125 130.924 60.6911 130.868 60.6525 130.824C60.9939 130.315 61.3662 129.827 61.7673 129.363C62.0068 129.528 62.2586 129.674 62.5206 129.8C62.7767 129.913 63.0629 129.717 63.2738 129.544C65.7821 127.57 79.3103 110.713 82.2103 102.758C83.5285 99.1277 85.2835 94.1111 85.7807 90.5558C86.0846 88.308 86.1124 86.0313 85.8635 83.7767C85.8635 83.7447 85.8762 83.7141 85.8988 83.6915C85.9214 83.6689 85.9521 83.6562 85.984 83.6562C86.016 83.6562 86.0466 83.6689 86.0693 83.6915C86.0919 83.7141 86.1045 83.7447 86.1045 83.7767C86.4818 86.0442 86.5552 88.3518 86.323 90.6387C85.7656 95.5724 81.8713 105.854 79.7924 109.635C81.5851 109.304 85.2308 108.581 86.9934 108.054C92.8687 106.268 98.292 100.943 98.7665 94.9623C98.9201 92.1448 98.9201 89.3209 98.7665 86.5034C98.7157 82.6138 98.2101 78.7435 97.26 74.9713C98.8569 74.1051 100.318 73.0882 100.793 72.1542C101.81 70.1581 99.1205 58.6712 98.533 55.4473C101.749 55.8013 107.225 56.4416 109.779 54.4455C112.701 52.0954 119.014 45.4819 122.637 40.3975ZM53.3078 113.061C54.5634 112.617 55.8499 112.264 57.1568 112.007L57.315 112.587C57.3327 112.655 57.3744 112.715 57.4325 112.755C57.4906 112.795 57.5612 112.813 57.6314 112.805L62.8062 112.203C64.2298 108.956 66.8435 104.037 66.8812 103.962C66.8435 102.734 66.8812 101.702 66.8812 100.527C63.921 101.627 58.4449 103.714 55.5826 105.047C55.5179 105.089 55.4678 105.149 55.4395 105.221C55.4111 105.293 55.4058 105.371 55.4244 105.446C55.4244 105.446 55.4771 105.634 55.5449 105.905C54.1439 105.905 49.9483 105.702 48.939 106.659C48.7821 106.877 48.705 107.143 48.7206 107.412C48.6603 108.451 49.18 116.526 50.0086 118.899C50.4379 120.142 51.3418 120.006 51.9595 118.816C52.6744 117.024 53.1333 115.14 53.3229 113.219C53.3229 113.122 53.3003 113.129 53.3078 113.061ZM52.4416 106.32C53.3605 106.244 53.6467 106.26 55.6202 106.199C55.9743 107.54 56.7049 110.297 57.0815 111.705C55.7526 111.911 54.4408 112.216 53.1571 112.617C52.7571 110.539 52.5179 108.434 52.4416 106.32ZM76.2597 45.3087C74.2787 43.8022 71.0925 41.2035 69.2395 39.4259L72.2525 37.9194C75.0191 40.5036 77.3874 43.4837 79.2802 46.7624C82.1742 52.079 84.3211 57.7694 85.6601 63.6727L74.9189 48.4798L76.32 45.5723C76.3385 45.5275 76.3427 45.4781 76.3319 45.4309C76.3211 45.3836 76.2958 45.3409 76.2597 45.3087ZM81.3516 36.7669C81.3968 36.8498 81.9165 37.957 82.7074 39.8929C82.7074 39.9757 82.5643 41.8588 82.4965 42.5217C81.5352 42.1406 80.6284 41.6341 79.7999 41.0152C79.9656 40.3599 80.7113 37.3846 80.7641 36.7142L81.3516 36.7669ZM78.6776 44.8567C78.7303 44.7211 78.7831 44.5404 78.8433 44.3295L79.348 44.5931C79.6342 44.7814 79.5212 44.2089 79.7773 45.8661C79.7773 46.1448 79.8527 46.4536 79.8677 46.7926C79.5212 46.1674 79.0919 45.497 78.6851 44.8567H78.6776ZM78.2558 44.224C76.8327 42.2056 75.2129 40.3334 73.42 38.635L79.0919 41.0981C78.8734 41.6178 78.5571 43.2071 78.2633 44.224H78.2558ZM84.0482 48.638C83.295 46.5816 82.715 44.2843 82.4287 43.6817C82.4457 43.4937 82.4457 43.3047 82.4287 43.1167C82.5377 43.1573 82.6518 43.1827 82.7677 43.1921C82.8404 43.1929 82.9109 43.1674 82.9662 43.1204C83.0216 43.0733 83.0581 43.0078 83.069 42.936C83.1292 42.6874 83.2272 41.4295 83.2422 41.1508C85.4334 46.683 87.2626 52.3518 88.7183 58.1213C84.4625 49.0673 85.1178 51.6886 84.0557 48.638H84.0482ZM90.2775 63.0174C88.5601 54.7844 85.5396 44.5178 82.1048 36.91C83.3662 36.9107 84.6256 37.0115 85.871 37.2113C86.5113 42.936 85.9765 42.7401 86.4058 42.9661C86.8352 43.1921 89.4188 44.2315 89.803 44.3897C89.7653 44.9697 90.3076 61.5561 90.285 63.0174H90.2775ZM71.2431 31.0272C70.9679 30.902 70.6863 30.7913 70.3995 30.6958C70.2069 30.6167 70.0351 30.4945 69.8971 30.3387C69.7591 30.1828 69.6586 29.9974 69.6033 29.7967C69.5481 29.5961 69.5395 29.3854 69.5783 29.1808C69.617 28.9763 69.7021 28.7834 69.827 28.6169C70.3016 28.2176 70.7309 28.2402 71.1226 28.8353C71.3712 29.2948 71.3636 29.3324 71.4766 29.3776C71.509 29.3919 71.5441 29.3991 71.5795 29.3987C71.615 29.3983 71.6499 29.3904 71.682 29.3754C71.7141 29.3604 71.7426 29.3388 71.7656 29.3119C71.7887 29.285 71.8057 29.2535 71.8156 29.2195C71.9272 28.748 71.9451 28.2592 71.8683 27.7808C71.7779 27.261 71.7628 24.9561 71.7779 24.8808C71.9979 24.9968 72.2451 25.0514 72.4935 25.039C73.8569 24.9862 74.128 24.2857 74.6704 23.7133C75.2955 23.7735 75.4236 24.0748 76.1316 23.7133C76.4632 23.5247 76.7673 23.2915 77.0355 23.0203C77.252 23.1089 77.4611 23.2147 77.6607 23.3366C78.1122 23.5537 78.6213 23.6204 79.1134 23.5269C79.6055 23.4333 80.0547 23.1845 80.395 22.8169C80.4778 22.9751 80.5532 23.1333 80.621 23.299C79.9288 23.5138 79.2771 23.8421 78.6927 24.2707C78.5646 24.4288 78.7529 25.2875 78.7981 25.4909C78.1671 25.5703 77.5565 25.767 76.9979 26.0709C76.8849 25.6792 76.6363 24.9486 76.2446 24.7452C76.1268 24.7091 76.0009 24.7091 75.8831 24.7452C75.2052 24.8507 72.7722 25.5813 72.4784 25.9805C72.2223 26.2592 72.953 28.4135 73.1789 28.7675C74.0452 30.1083 76.5836 29.7166 77.0581 28.1498C77.1756 27.624 77.1756 27.0788 77.0581 26.553C77.2766 26.553 77.9319 26.3195 78.0072 26.2969C78.5269 27.4644 78.6776 27.5322 79.2802 28.7901C79.1973 28.8579 79.0617 28.9709 78.9488 29.0462C78.414 29.4002 78.301 29.34 78.3311 29.4906C78.3399 29.5205 78.3593 29.5462 78.3856 29.5628C78.4119 29.5795 78.4435 29.5859 78.4742 29.581C78.7903 29.5358 79.0993 29.4497 79.3932 29.3249C79.5691 29.2593 79.7141 29.1303 79.7999 28.9634C80.0108 28.4888 78.8433 26.7036 78.3838 26.1688C78.4742 26.1688 78.6851 26.0182 78.8433 25.9353C79.0542 26.779 79.1973 27.4418 80.0108 27.7732C80.2459 27.862 80.4965 27.9024 80.7476 27.8921C80.9987 27.8817 81.2451 27.8208 81.4721 27.713C81.5926 29.0387 81.57 31.1929 80.9373 32.368C80.6134 32.9781 79.815 33.2116 79.3028 33.7163C79.1521 33.8594 79.2501 34.0628 79.3028 34.2812C80.1389 36.6087 80.1539 36.6012 80.1088 36.9025C79.8871 38.153 79.5775 39.3864 79.1823 40.5934C78.994 40.5105 76.8773 39.3882 72.7345 37.7763C72.6065 36.9251 71.921 32.3831 71.7026 31.547C71.7177 31.2532 71.68 31.1854 71.2431 30.9896V31.0272ZM76.5158 27.954C76.2748 28.775 75.1374 29.1291 74.3239 28.9031C73.5104 28.6771 73.4576 28.2628 73.0735 27.2836C72.8934 26.9095 72.7691 26.5111 72.7044 26.101C72.953 25.8299 75.6722 25.2725 76.0111 25.2197C76.4866 26.033 76.6649 26.9862 76.5158 27.9163V27.954ZM75.7385 26.4464C75.7291 26.3969 75.7101 26.3498 75.6825 26.3077C75.6548 26.2656 75.6192 26.2293 75.5776 26.201C75.536 26.1727 75.4892 26.1528 75.4399 26.1426C75.3906 26.1323 75.3398 26.1319 75.2903 26.1413C75.2409 26.1507 75.1937 26.1697 75.1516 26.1973C75.1096 26.225 75.0733 26.2606 75.045 26.3022C75.0166 26.3438 74.9968 26.3906 74.9865 26.4399C74.9763 26.4892 74.9759 26.54 74.9853 26.5895C75.1359 27.3427 75.166 27.516 75.4975 27.516C75.5601 27.5162 75.6218 27.5008 75.677 27.4711C75.7322 27.4415 75.7791 27.3985 75.8135 27.3462C75.8479 27.2938 75.8687 27.2337 75.874 27.1713C75.8794 27.1089 75.869 27.0461 75.844 26.9887C75.8214 26.8682 75.7536 26.5141 75.7385 26.4464ZM78.0434 31.4328C78.533 31.5759 79 31.3424 78.985 31.2219C78.9699 31.1014 78.985 31.1616 78.3221 30.9131C77.8777 30.7474 77.3881 30.1598 77.2149 30.2502C77.0416 30.3406 77.3052 30.8227 77.3655 30.9131C77.5267 31.1576 77.7655 31.3407 78.0434 31.4328ZM64.5694 80.0255C64.4037 79.9201 64.2832 79.8222 64.2606 79.6866C63.8463 76.6134 66.1512 59.1984 66.1135 58.513C66.1136 58.4728 66.1055 58.433 66.0899 58.3959C66.0743 58.3589 66.0514 58.3253 66.0226 58.2972C65.9939 58.2691 65.9598 58.2471 65.9223 58.2324C65.8849 58.2177 65.8449 58.2107 65.8047 58.2117C65.4206 58.2117 66.0985 58.2117 56.5022 67.4012C55.8695 67.9963 51.0337 72.6212 50.2277 72.93C49.1204 72.8472 44.955 69.5254 44.2771 68.4784C45.5877 65.827 61.4811 44.0131 66.9798 40.6762C67.4016 40.4201 68.1247 40.0209 68.9156 39.5991C69.1891 39.857 69.4839 40.0914 69.7969 40.2996C71.5444 41.9568 73.9774 44.0206 75.8228 45.5723L74.3841 48.4271C74.3623 48.4649 74.3508 48.5077 74.3508 48.5514C74.3508 48.595 74.3623 48.6379 74.3841 48.6757C86.0669 65.4353 85.8936 65.247 85.969 65.247C86.7179 69.1197 87.1836 73.042 87.3625 76.9824C87.3625 78.0445 87.3625 77.9541 87.4077 77.8788C87.4529 77.8035 87.4077 77.9315 87.4077 77.9315C85.5848 79.9201 67.5447 81.7731 64.5694 80.0255ZM87.4604 71.0996C87.3323 70.0602 87.1742 68.9378 86.9783 67.7703L87.3022 67.341C88.8087 65.4051 89.2606 62.3244 89.1175 59.9065C89.9235 63.4392 90.5637 66.9116 91.0533 70.3615L87.4604 71.0996ZM106.209 55.0707C102.796 55.5452 98.9398 54.8372 98.1941 54.807C97.7797 52.799 96.9538 50.8986 95.7686 49.2255C95.7505 49.2011 95.7239 49.1845 95.694 49.1789C95.6642 49.1733 95.6333 49.1792 95.6076 49.1954C95.5819 49.2115 95.5633 49.2368 95.5554 49.2662C95.5476 49.2955 95.5511 49.3267 95.5653 49.3536C96.0021 50.2424 97.4634 54.0764 97.825 55.0104C97.712 55.372 101.23 69.917 100.235 71.8755C99.3465 73.6456 94.1718 75.8752 92.3037 76.5154C91.9344 72.3221 91.3308 68.1527 90.4959 64.0267C90.752 61.8574 90.4206 48.9619 90.3227 44.1939C90.3198 44.1385 90.3013 44.085 90.2693 44.0397C90.2373 43.9944 90.1932 43.959 90.1419 43.9378L86.7599 42.5141C86.7445 40.7241 86.6313 38.9363 86.4209 37.1586C94.8647 38.6199 104.702 43.4482 105.523 43.4557C106.713 43.4557 115.556 36.6765 117.387 36.4054C118.2 36.2773 121.695 39.3279 122.102 40.1716C118.532 45.158 112.257 51.7112 109.35 53.9785C108.413 54.6047 107.332 54.9807 106.209 55.0707Z"/>
</svg>